<svg xmlns="http://www.w3.org/2000/svg" viewBox="0 0 140.43 91.62">
    <defs>
        <style>
            .cls-1 {
                fill: #ffffff;
            }
        </style>
    </defs>
    <title>Fichier 6form</title>
    <g id="Calque_2" data-name="Calque 2">
        <g id="Calque_1-2" data-name="Calque 1">
            <rect class="cls-1" x="108.3" width="10" height="91.62" rx="4.85" />
            <rect class="cls-1" x="130.73" y="81.88" width="9.71" height="9.71" rx="4.85" />
            <path class="cls-1"
                d="M86.48,0h-.29a4.85,4.85,0,0,0-4.85,4.85V76.76a4.87,4.87,0,0,1-4.86,4.86H69.33a4.86,4.86,0,0,1-4.86-4.86V4.85A4.85,4.85,0,0,0,59.62,0H4.85A4.85,4.85,0,0,0,0,4.85V86.76a4.86,4.86,0,0,0,4.85,4.86h.3A4.86,4.86,0,0,0,10,86.76V14.85A4.85,4.85,0,0,1,14.85,10H22a4.85,4.85,0,0,1,4.85,4.85V86.76a4.87,4.87,0,0,0,4.86,4.86H86.48a4.87,4.87,0,0,0,4.86-4.86V4.85A4.86,4.86,0,0,0,86.48,0Zm-32,14.85V76.76a4.86,4.86,0,0,1-4.85,4.86h-7.9a4.87,4.87,0,0,1-4.86-4.86V14.85A4.86,4.86,0,0,1,41.72,10h7.9A4.85,4.85,0,0,1,54.47,14.85Z" />
        </g>
    </g>
</svg>